<svg width="512" height="512" viewBox="0 0 512 512" fill="none" xmlns="http://www.w3.org/2000/svg">
  <rect width="512" height="512" rx="128" fill="#6D4AFF" />
  
  <path 
    d="M126 380H386C408.091 380 426 362.091 426 340V245C426 156.634 354.366 85 266 85H246C157.634 85 86 156.634 86 245V340C86 362.091 103.909 380 126 380Z" 
    fill="white" 
  />
  
  <circle cx="190" cy="210" r="18" fill="#6D4AFF" />
  <circle cx="322" cy="210" r="18" fill="#6D4AFF" />
  
  <path
    d="M190 270C190 270 230 315 256 315C282 315 322 265 322 265"
    stroke="#6D4AFF"
    stroke-width="32"
    stroke-linecap="round"
    stroke-linejoin="round"
  />

  <path 
    d="M425 70L440 115L485 130L440 145L425 190L410 145L365 130L410 115L425 70Z" 
    fill="#FBBF24" 
  />
</svg>