<svg width="512" height="512" viewBox="0 0 512 512" fill="none" xmlns="http://www.w3.org/2000/svg">
  <rect width="512" height="512" rx="128" fill="#6D4AFF" />
  
  <path 
    d="M145 160C145 104.772 189.772 60 245 60H267C322.228 60 367 104.772 367 160V320C367 397.32 304.32 460 227 460H185C118.726 460 65 406.274 65 340V240C65 195.817 100.817 160 145 160Z" 
    fill="white" 
  />
  
  <circle cx="180" cy="220" r="25" fill="#6D4AFF" />
  
  <circle cx="300" cy="220" r="25" fill="#6D4AFF" />
  
  <path
    d="M150 300C150 300 210 380 240 380C270 380 330 290 330 290"
    stroke="#6D4AFF"
    stroke-width="36"
    stroke-linecap="round"
    stroke-linejoin="round"
  />

  <path 
    d="M420 60L435 110L485 125L435 140L420 190L405 140L355 125L405 110L420 60Z" 
    fill="#FBBF24" 
  />
</svg>