<svg viewBox="0 0 512 512" fill="none" xmlns="http://www.w3.org/2000/svg">
  <rect width="512" height="512" rx="128" fill="#8B5CF6" />

  <path d="M90 350C90 350 130 390 190 400" stroke="white" stroke-width="16" stroke-linecap="round" stroke-opacity="0.4" />
  <path d="M70 300C70 300 100 330 150 340" stroke="white" stroke-width="16" stroke-linecap="round" stroke-opacity="0.4" />

  <g transform="rotate(-15, 256, 256)">
    
    <path 
      d="M256 100L256 200" 
      stroke="white" 
      stroke-width="32" 
      stroke-linecap="round" 
    />

    <path 
      d="M256 180 C 320 180, 360 220, 380 360 L 132 360 C 152 220, 192 180, 256 180 Z" 
      fill="white" 
    />

    <path 
      d="M132 360 L132 370 C 132 385, 150 385, 160 370 L 165 380 C 165 395, 185 395, 195 380 L 200 390 C 200 405, 220 405, 230 390 L 256 400 L 282 390 C 292 405, 312 405, 312 390 L 317 380 C 327 395, 347 395, 347 380 L 352 370 C 362 385, 380 385, 380 370 L 380 360" 
      fill="white" 
    />

    <g fill="#8B5CF6">
      <circle cx="220" cy="260" r="14" />
      <circle cx="292" cy="260" r="14" />
      <path 
        d="M225 290 Q 256 320 287 290" 
        stroke="#8B5CF6" 
        stroke-width="10" 
        stroke-linecap="round" 
        fill="none" 
      />
    </g>
  </g>
</svg>